<?xml version="1.0" encoding="UTF-8" standalone="no"?>
<!-- Created with Inkscape (http://www.inkscape.org/) -->
<svg
   xmlns:dc="http://purl.org/dc/elements/1.1/"
   xmlns:cc="http://creativecommons.org/ns#"
   xmlns:rdf="http://www.w3.org/1999/02/22-rdf-syntax-ns#"
   xmlns:svg="http://www.w3.org/2000/svg"
   xmlns="http://www.w3.org/2000/svg"
   xmlns:sodipodi="http://sodipodi.sourceforge.net/DTD/sodipodi-0.dtd"
   xmlns:inkscape="http://www.inkscape.org/namespaces/inkscape"
   width="421.39999"
   height="308.70001"
   id="svg2"
   sodipodi:version="0.32"
   inkscape:version="0.46"
   sodipodi:docname="lvm.svg"
   inkscape:output_extension="org.inkscape.output.svg.inkscape"
   version="1.0">
  <defs
     id="defs4">
    <marker
       inkscape:stockid="Arrow2Lend"
       orient="auto"
       refY="0"
       refX="0"
       id="Arrow2Lend"
       style="overflow:visible">
      <path
         id="path3245"
         style="font-size:12px;fill-rule:evenodd;stroke-width:0.625;stroke-linejoin:round"
         d="M 8.7185878,4.0337352 L -2.2072895,0.016013256 L 8.7185884,-4.0017078 C 6.97309,-1.6296469 6.9831476,1.6157441 8.7185878,4.0337352 z"
         transform="matrix(-1.1,0,0,-1.1,-1.1,0)" />
    </marker>
    <inkscape:perspective
       sodipodi:type="inkscape:persp3d"
       inkscape:vp_x="0 : 526.18109 : 1"
       inkscape:vp_y="0 : 1000 : 0"
       inkscape:vp_z="744.09448 : 526.18109 : 1"
       inkscape:persp3d-origin="372.04724 : 350.78739 : 1"
       id="perspective10" />
  </defs>
  <sodipodi:namedview
     id="base"
     pagecolor="#ffffff"
     bordercolor="#666666"
     borderopacity="1.0"
     gridtolerance="10000"
     guidetolerance="10"
     objecttolerance="10"
     inkscape:pageopacity="0.0"
     inkscape:pageshadow="2"
     inkscape:zoom="0.7"
     inkscape:cx="156.48245"
     inkscape:cy="286.2875"
     inkscape:document-units="px"
     inkscape:current-layer="layer1"
     showgrid="false"
     inkscape:window-width="916"
     inkscape:window-height="880"
     inkscape:window-x="215"
     inkscape:window-y="121" />
  <metadata
     id="metadata7">
    <rdf:RDF>
      <cc:Work
         rdf:about="">
        <dc:format>image/svg+xml</dc:format>
        <dc:type
           rdf:resource="http://purl.org/dc/dcmitype/StillImage" />
      </cc:Work>
    </rdf:RDF>
  </metadata>
  <g
     inkscape:label="Layer 1"
     inkscape:groupmode="layer"
     id="layer1"
     transform="translate(-90.06019,-193.68516)">
    <rect
       style="fill:#f8ffc8;fill-opacity:1;stroke:none;stroke-width:0.99224186;stroke-miterlimit:4;stroke-dasharray:none;stroke-opacity:1"
       id="rect3163"
       width="5.4363222"
       height="51.525539"
       x="110.57328"
       y="255.36136" />
    <path
       style="fill:#c8fffd;fill-opacity:1;stroke:none;stroke-width:1;stroke-miterlimit:4;stroke-opacity:1"
       d="M 215.26147,291.30668 L 289.50768,252.92089 L 289.25514,304.18613 L 215.1875,341.84495 L 215.26147,291.30668 z"
       id="rect3204"
       sodipodi:nodetypes="ccccc" />
    <path
       sodipodi:type="arc"
       style="fill:#c8fffd;fill-opacity:1;stroke:#000000;stroke-width:2.0049119;stroke-miterlimit:4;stroke-dasharray:none;stroke-opacity:1"
       id="path2385"
       sodipodi:cx="221.42857"
       sodipodi:cy="273.79074"
       sodipodi:rx="147.14285"
       sodipodi:ry="95.714287"
       d="M 368.57143,273.79074 A 147.14285,95.714287 0 0 1 359.69763,306.52696 L 221.42857,273.79074 z"
       transform="matrix(0.6082665,0,0,0.405623,65.389576,141.98001)"
       sodipodi:start="0"
       sodipodi:end="0.34906585" />
    <path
       sodipodi:type="arc"
       style="fill:#c8fffd;fill-opacity:1;stroke:#000000;stroke-width:2.005193;stroke-miterlimit:4;stroke-dasharray:none;stroke-opacity:1"
       id="path3157"
       sodipodi:cx="221.42857"
       sodipodi:cy="273.79074"
       sodipodi:rx="147.14285"
       sodipodi:ry="95.714287"
       d="M 368.57143,273.79074 A 147.14285,95.714287 0 0 1 246.97966,368.05091"
       transform="matrix(0.6082665,0,0,0.4056135,65.389568,191.98053)"
       sodipodi:start="0"
       sodipodi:end="1.3962634"
       sodipodi:open="true" />
    <path
       style="fill:none;fill-rule:evenodd;stroke:#000000;stroke-width:0.98615241;stroke-linecap:butt;stroke-linejoin:miter;stroke-miterlimit:4;stroke-dasharray:none;stroke-opacity:1"
       d="M 289.57715,303.04883 L 289.57715,253.50837"
       id="path3165" />
    <path
       style="fill:none;fill-rule:evenodd;stroke:#000000;stroke-width:1.03392887;stroke-linecap:butt;stroke-linejoin:miter;stroke-miterlimit:4;stroke-dasharray:none;stroke-opacity:1"
       d="M 110.57715,303.12521 L 110.57715,253.33857"
       id="path3167" />
    <path
       style="fill:#f8ffc8;fill-opacity:1;stroke:none;stroke-width:1;stroke-miterlimit:4;stroke-opacity:1"
       d="M 116.13736,266.4648 L 184.10715,290.92909 L 183.9849,341.46481 L 115.89286,316.46481 L 116.13736,266.4648 z"
       id="rect3201"
       sodipodi:nodetypes="ccccc" />
    <path
       sodipodi:type="arc"
       style="fill:#f3c8ff;fill-opacity:1;stroke:#000000;stroke-width:2.0049119;stroke-miterlimit:4;stroke-dasharray:none;stroke-opacity:1"
       id="path3168"
       sodipodi:cx="221.42857"
       sodipodi:cy="273.79074"
       sodipodi:rx="147.14285"
       sodipodi:ry="95.714287"
       d="M 246.97966,368.05091 A 147.14285,95.714287 0 0 1 83.159521,306.52696 L 221.42857,273.79074 z"
       transform="matrix(0.6082665,0,0,0.405623,65.389576,141.98001)"
       sodipodi:start="1.3962634"
       sodipodi:end="2.7925268" />
    <path
       style="fill:#e4e4e4;fill-opacity:1;stroke:none;stroke-width:1;stroke-miterlimit:4;stroke-opacity:1"
       d="M 184.64286,291.46481 L 214.82143,291.28624 L 215.35715,341.64338 L 184.28571,341.46481 L 184.64286,291.46481 z"
       id="rect4067"
       sodipodi:nodetypes="ccccc" />
    <path
       sodipodi:type="arc"
       style="fill:#f8ffc8;fill-opacity:1;stroke:#000000;stroke-width:2.005193;stroke-miterlimit:4;stroke-dasharray:none;stroke-opacity:1"
       id="path3170"
       sodipodi:cx="221.42857"
       sodipodi:cy="273.79074"
       sodipodi:rx="147.14285"
       sodipodi:ry="95.714287"
       d="M 195.87748,368.05091 A 147.14285,95.714287 0 0 1 83.159521,306.52696"
       transform="matrix(0.6082665,0,0,0.4056135,65.389568,191.98053)"
       sodipodi:start="1.7453293"
       sodipodi:end="2.7925268"
       sodipodi:open="true" />
    <path
       style="fill:none;fill-rule:evenodd;stroke:#000000;stroke-width:1px;stroke-linecap:butt;stroke-linejoin:miter;stroke-opacity:1"
       d="M 215.35714,291.64337 L 215.35714,341.28623"
       id="path3172" />
    <path
       style="fill:#f8ffc8;fill-opacity:1;stroke:none;stroke-width:1;stroke-miterlimit:4;stroke-opacity:1"
       d="M 116.04555,303.93359 L 115.88848,316.01462 L 110.33111,304.51103 L 116.04555,303.93359 z"
       id="path3196"
       sodipodi:nodetypes="cccc" />
    <path
       style="fill:none;fill-rule:evenodd;stroke:#000000;stroke-width:1px;stroke-linecap:butt;stroke-linejoin:miter;stroke-opacity:1"
       d="M 116.07143,266.82195 L 116.07143,316.46481"
       id="path3174" />
    <path
       sodipodi:type="arc"
       style="fill:#f8ffc8;fill-opacity:1;stroke:#000000;stroke-width:2.005193;stroke-miterlimit:4;stroke-dasharray:none;stroke-opacity:1"
       id="path3176"
       sodipodi:cx="221.42857"
       sodipodi:cy="273.79074"
       sodipodi:rx="147.14285"
       sodipodi:ry="95.714287"
       d="M 83.159521,306.52696 A 147.14285,95.714287 0 0 1 74.285721,273.79074"
       transform="matrix(0.6082665,0,0,0.4056135,65.389568,191.98053)"
       sodipodi:start="2.7925268"
       sodipodi:end="3.1415927"
       sodipodi:open="true" />
    <rect
       style="fill:#e4e4e4;fill-opacity:1;stroke:#000000;stroke-width:1;stroke-miterlimit:4;stroke-dasharray:none;stroke-opacity:1"
       id="rect3209"
       width="100"
       height="29.051376"
       x="330.5"
       y="429.29181" />
    <rect
       style="fill:#c8fffd;fill-opacity:1;stroke:#000000;stroke-width:1;stroke-miterlimit:4;stroke-dasharray:none;stroke-opacity:1"
       id="rect3213"
       width="80"
       height="28.670856"
       x="330.69025"
       y="244.02225" />
    <rect
       style="fill:#f3c8ff;fill-opacity:1;stroke:#000000;stroke-width:1;stroke-miterlimit:4;stroke-dasharray:none;stroke-opacity:1"
       id="rect3215"
       width="80"
       height="28.670856"
       x="330.69025"
       y="279.02225" />
    <rect
       style="fill:#f8ffc8;fill-opacity:1;stroke:#000000;stroke-width:1;stroke-miterlimit:4;stroke-dasharray:none;stroke-opacity:1"
       id="rect3217"
       width="160"
       height="28.139008"
       x="330.95618"
       y="314.28815" />
    <path
       style="fill:none;fill-rule:evenodd;stroke:#000000;stroke-width:1px;stroke-linecap:butt;stroke-linejoin:miter;marker-end:url(#Arrow2Lend);stroke-opacity:1"
       d="M 298.09398,346.63917 L 322.33764,346.63917"
       id="path3219" />
    <path
       sodipodi:type="arc"
       style="fill:#c8fffd;fill-opacity:1;stroke:#000000;stroke-width:2.0049119;stroke-miterlimit:4;stroke-dasharray:none;stroke-opacity:1"
       id="path4019"
       sodipodi:cx="221.42857"
       sodipodi:cy="273.79074"
       sodipodi:rx="147.14285"
       sodipodi:ry="95.714287"
       d="M 359.69763,306.52696 A 147.14285,95.714287 0 0 1 334.14654,335.3147 L 221.42857,273.79074 z"
       transform="matrix(0.6082665,0,0,0.405623,65.389576,141.98001)"
       sodipodi:start="0.34906585"
       sodipodi:end="0.6981317" />
    <path
       sodipodi:type="arc"
       style="fill:#c8fffd;fill-opacity:1;stroke:#000000;stroke-width:2.0049119;stroke-miterlimit:4;stroke-dasharray:none;stroke-opacity:1"
       id="path4021"
       sodipodi:cx="221.42857"
       sodipodi:cy="273.79074"
       sodipodi:rx="147.14285"
       sodipodi:ry="95.714287"
       d="M 334.14654,335.3147 A 147.14285,95.714287 0 0 1 294.99999,356.68175 L 221.42857,273.79074 z"
       transform="matrix(0.6082665,0,0,0.405623,65.389576,141.98001)"
       sodipodi:start="0.6981317"
       sodipodi:end="1.0471976" />
    <path
       sodipodi:type="arc"
       style="fill:#c8fffd;fill-opacity:1;stroke:#000000;stroke-width:2.0049119;stroke-miterlimit:4;stroke-dasharray:none;stroke-opacity:1"
       id="path4023"
       sodipodi:cx="221.42857"
       sodipodi:cy="273.79074"
       sodipodi:rx="147.14285"
       sodipodi:ry="95.714287"
       d="M 294.99999,356.68175 A 147.14285,95.714287 0 0 1 246.97966,368.05091 L 221.42857,273.79074 z"
       transform="matrix(0.6082665,0,0,0.405623,65.389576,141.98001)"
       sodipodi:start="1.0471976"
       sodipodi:end="1.3962634" />
    <path
       sodipodi:type="arc"
       style="fill:#e4e4e4;fill-opacity:1;stroke:#000000;stroke-width:2.0049119;stroke-miterlimit:4;stroke-dasharray:none;stroke-opacity:1"
       id="path4025"
       sodipodi:cx="221.42857"
       sodipodi:cy="273.79074"
       sodipodi:rx="147.14285"
       sodipodi:ry="95.714287"
       d="M 246.97966,368.05091 A 147.14285,95.714287 0 0 1 195.87748,368.05091 L 221.42857,273.79074 z"
       transform="matrix(0.6082665,0,0,0.405623,65.389576,141.98001)"
       sodipodi:start="1.3962634"
       sodipodi:end="1.7453293" />
    <path
       sodipodi:type="arc"
       style="fill:#f8ffc8;fill-opacity:1;stroke:#000000;stroke-width:2.0049119;stroke-miterlimit:4;stroke-dasharray:none;stroke-opacity:1"
       id="path4027"
       sodipodi:cx="221.42857"
       sodipodi:cy="273.79074"
       sodipodi:rx="147.14285"
       sodipodi:ry="95.714287"
       d="M 195.87748,368.05091 A 147.14285,95.714287 0 0 1 147.85715,356.68174 L 221.42857,273.79074 z"
       transform="matrix(0.6082665,0,0,0.405623,65.389576,141.98001)"
       sodipodi:start="1.7453293"
       sodipodi:end="2.0943951" />
    <path
       sodipodi:type="arc"
       style="fill:#f8ffc8;fill-opacity:1;stroke:#000000;stroke-width:2.0049119;stroke-miterlimit:4;stroke-dasharray:none;stroke-opacity:1"
       id="path4029"
       sodipodi:cx="221.42857"
       sodipodi:cy="273.79074"
       sodipodi:rx="147.14285"
       sodipodi:ry="95.714287"
       d="M 147.85715,356.68174 A 147.14285,95.714287 0 0 1 108.7106,335.3147 L 221.42857,273.79074 z"
       transform="matrix(0.6082665,0,0,0.405623,65.389576,141.98001)"
       sodipodi:start="2.0943951"
       sodipodi:end="2.443461" />
    <path
       sodipodi:type="arc"
       style="fill:#f8ffc8;fill-opacity:1;stroke:#000000;stroke-width:2.0049119;stroke-miterlimit:4;stroke-dasharray:none;stroke-opacity:1"
       id="path4031"
       sodipodi:cx="221.42857"
       sodipodi:cy="273.79074"
       sodipodi:rx="147.14285"
       sodipodi:ry="95.714287"
       d="M 108.7106,335.3147 A 147.14285,95.714287 0 0 1 83.159521,306.52696 L 221.42857,273.79074 z"
       transform="matrix(0.6082665,0,0,0.405623,65.389576,141.98001)"
       sodipodi:start="2.443461"
       sodipodi:end="2.7925268" />
    <path
       sodipodi:type="arc"
       style="fill:#f8ffc8;fill-opacity:1;stroke:#000000;stroke-width:2.0049119;stroke-miterlimit:4;stroke-dasharray:none;stroke-opacity:1"
       id="path4033"
       sodipodi:cx="221.42857"
       sodipodi:cy="273.79074"
       sodipodi:rx="147.14285"
       sodipodi:ry="95.714287"
       d="M 83.159521,306.52696 A 147.14285,95.714287 0 0 1 74.285721,273.79074 L 221.42857,273.79074 z"
       transform="matrix(0.6082665,0,0,0.405623,65.389576,141.98001)"
       sodipodi:start="2.7925268"
       sodipodi:end="3.1415927" />
    <path
       sodipodi:type="arc"
       style="fill:#f3c8ff;fill-opacity:1;stroke:#000000;stroke-width:2.0049119;stroke-miterlimit:4;stroke-dasharray:none;stroke-opacity:1"
       id="path4035"
       sodipodi:cx="221.42857"
       sodipodi:cy="273.79074"
       sodipodi:rx="147.14285"
       sodipodi:ry="95.714287"
       d="M 74.285721,273.79074 A 147.14285,95.714287 0 0 1 83.15952,241.05453 L 221.42857,273.79074 z"
       transform="matrix(0.6082665,0,0,0.405623,65.389576,141.98001)"
       sodipodi:start="3.1415927"
       sodipodi:end="3.4906585" />
    <path
       sodipodi:type="arc"
       style="fill:#e4e4e4;fill-opacity:1;stroke:#000000;stroke-width:2.0049119;stroke-miterlimit:4;stroke-dasharray:none;stroke-opacity:1"
       id="path4039"
       sodipodi:cx="221.42857"
       sodipodi:cy="273.79074"
       sodipodi:rx="147.14285"
       sodipodi:ry="95.714287"
       d="M 83.15952,241.05453 A 147.14285,95.714287 0 0 1 108.71061,212.26678 L 221.42857,273.79074 z"
       transform="matrix(0.6082665,0,0,0.405623,65.389576,141.98001)"
       sodipodi:start="3.4906585"
       sodipodi:end="3.8397244" />
    <path
       sodipodi:type="arc"
       style="fill:#f8ffc8;fill-opacity:1;stroke:#000000;stroke-width:2.0049119;stroke-miterlimit:4;stroke-dasharray:none;stroke-opacity:1"
       id="path4041"
       sodipodi:cx="221.42857"
       sodipodi:cy="273.79074"
       sodipodi:rx="147.14285"
       sodipodi:ry="95.714287"
       d="M 108.71061,212.26678 A 147.14285,95.714287 0 0 1 147.85715,190.89974 L 221.42857,273.79074 z"
       transform="matrix(0.6082665,0,0,0.405623,65.389576,141.98001)"
       sodipodi:start="3.8397244"
       sodipodi:end="4.1887902" />
    <path
       sodipodi:type="arc"
       style="fill:#f3c8ff;fill-opacity:1;stroke:#000000;stroke-width:2.0049119;stroke-miterlimit:4;stroke-dasharray:none;stroke-opacity:1"
       id="path4043"
       sodipodi:cx="221.42857"
       sodipodi:cy="273.79074"
       sodipodi:rx="147.14285"
       sodipodi:ry="95.714287"
       d="M 147.85715,190.89974 A 147.14285,95.714287 0 0 1 195.87749,179.53057 L 221.42857,273.79074 z"
       transform="matrix(0.6082665,0,0,0.405623,65.389576,141.98001)"
       sodipodi:start="4.1887902"
       sodipodi:end="4.5378561" />
    <path
       sodipodi:type="arc"
       style="fill:#ffc8c8;fill-opacity:1;stroke:#000000;stroke-width:2.0049119;stroke-miterlimit:4;stroke-dasharray:none;stroke-opacity:1"
       id="path4045"
       sodipodi:cx="221.42857"
       sodipodi:cy="273.79074"
       sodipodi:rx="147.14285"
       sodipodi:ry="95.714287"
       d="M 195.87749,179.53057 A 147.14285,95.714287 0 0 1 246.97966,179.53057 L 221.42857,273.79074 z"
       transform="matrix(0.6082665,0,0,0.405623,65.389576,141.98001)"
       sodipodi:start="4.5378561"
       sodipodi:end="4.8869219" />
    <path
       sodipodi:type="arc"
       style="fill:#ffc8c8;fill-opacity:1;stroke:#000000;stroke-width:2.0049119;stroke-miterlimit:4;stroke-dasharray:none;stroke-opacity:1"
       id="path4047"
       sodipodi:cx="221.42857"
       sodipodi:cy="273.79074"
       sodipodi:rx="147.14285"
       sodipodi:ry="95.714287"
       d="M 246.97966,179.53057 A 147.14285,95.714287 0 0 1 295.00001,190.89974 L 221.42857,273.79074 z"
       transform="matrix(0.6082665,0,0,0.405623,65.389576,141.98001)"
       sodipodi:start="4.8869219"
       sodipodi:end="5.2359878" />
    <path
       sodipodi:type="arc"
       style="fill:#f8ffc8;fill-opacity:1;stroke:#000000;stroke-width:2.0049119;stroke-miterlimit:4;stroke-dasharray:none;stroke-opacity:1"
       id="path4049"
       sodipodi:cx="221.42857"
       sodipodi:cy="273.79074"
       sodipodi:rx="147.14285"
       sodipodi:ry="95.714287"
       d="M 295.00001,190.89974 A 147.14285,95.714287 0 0 1 334.14654,212.26678 L 221.42857,273.79074 z"
       transform="matrix(0.6082665,0,0,0.405623,65.389576,141.98001)"
       sodipodi:start="5.2359878"
       sodipodi:end="5.5850536" />
    <path
       sodipodi:type="arc"
       style="fill:#f8ffc8;fill-opacity:1;stroke:#000000;stroke-width:2.0049119;stroke-miterlimit:4;stroke-dasharray:none;stroke-opacity:1"
       id="path4051"
       sodipodi:cx="221.42857"
       sodipodi:cy="273.79074"
       sodipodi:rx="147.14285"
       sodipodi:ry="95.714287"
       d="M 334.14654,212.26678 A 147.14285,95.714287 0 0 1 359.69763,241.05453 L 221.42857,273.79074 z"
       transform="matrix(0.6082665,0,0,0.405623,65.389576,141.98001)"
       sodipodi:start="5.5850536"
       sodipodi:end="5.9341195" />
    <path
       sodipodi:type="arc"
       style="fill:#f8ffc8;fill-opacity:1;stroke:#000000;stroke-width:2.0049119;stroke-miterlimit:4;stroke-dasharray:none;stroke-opacity:1"
       id="path4053"
       sodipodi:cx="221.42857"
       sodipodi:cy="273.79074"
       sodipodi:rx="147.14285"
       sodipodi:ry="95.714287"
       d="M 359.69763,241.05453 A 147.14285,95.714287 0 0 1 368.57143,273.79074 L 221.42857,273.79074 z"
       transform="matrix(0.6082665,0,0,0.405623,65.389576,141.98001)"
       sodipodi:start="5.9341195"
       sodipodi:end="6.2831853" />
    <path
       style="fill:none;fill-rule:evenodd;stroke:#000000;stroke-width:1px;stroke-linecap:butt;stroke-linejoin:miter;stroke-opacity:1"
       d="M 244.64286,286.4648 L 244.64286,336.10766"
       id="path4055" />
    <path
       style="fill:none;fill-rule:evenodd;stroke:#000000;stroke-width:1px;stroke-linecap:butt;stroke-linejoin:miter;stroke-opacity:1"
       d="M 268.21429,278.25052 L 268.21429,327.89338"
       id="path4057" />
    <path
       style="fill:none;fill-rule:evenodd;stroke:#000000;stroke-width:1px;stroke-linecap:butt;stroke-linejoin:miter;stroke-opacity:1"
       d="M 283.92857,266.82194 L 283.92857,316.4648"
       id="path4059" />
    <path
       style="fill:none;fill-rule:evenodd;stroke:#000000;stroke-width:1px;stroke-linecap:butt;stroke-linejoin:miter;stroke-opacity:1"
       d="M 184.42857,291.41123 L 184.42857,341.05409"
       id="path4061" />
    <path
       style="fill:none;fill-rule:evenodd;stroke:#000000;stroke-width:1px;stroke-linecap:butt;stroke-linejoin:miter;stroke-opacity:1"
       d="M 155.35715,287.00051 L 155.35715,336.64337"
       id="path4063" />
    <path
       style="fill:none;fill-rule:evenodd;stroke:#000000;stroke-width:1px;stroke-linecap:butt;stroke-linejoin:miter;stroke-opacity:1"
       d="M 131.60714,278.25051 L 131.60714,327.89337"
       id="path4065" />
    <path
       sodipodi:type="arc"
       style="fill:#e4e4e4;fill-opacity:1;stroke:#000000;stroke-width:2.005193;stroke-miterlimit:4;stroke-dasharray:none;stroke-opacity:1"
       id="path4070"
       sodipodi:cx="221.42857"
       sodipodi:cy="273.79074"
       sodipodi:rx="147.14285"
       sodipodi:ry="95.714287"
       d="M 246.97966,368.05091 A 147.14285,95.714287 0 0 1 195.87748,368.05091"
       transform="matrix(0.6082665,0,0,0.4056135,65.389568,191.98053)"
       sodipodi:start="1.3962634"
       sodipodi:end="1.7453293"
       sodipodi:open="true" />
    <rect
       style="fill:#ffc8c8;fill-opacity:1;stroke:none;stroke-width:0.99224186000000003;stroke-miterlimit:4;stroke-dasharray:none;stroke-opacity:1"
       id="rect2424"
       width="5.4363222"
       height="51.525539"
       x="110.57327"
       y="395.36133" />
    <path
       style="fill:#cbffc8;fill-opacity:1;stroke:none;stroke-width:1;stroke-miterlimit:4;stroke-opacity:1"
       d="M 215.26147,431.30668 L 289.50768,392.92089 L 289.25514,444.18613 L 215.1875,481.84495 L 215.26147,431.30668 z"
       id="path2426"
       sodipodi:nodetypes="ccccc" />
    <path
       sodipodi:type="arc"
       style="fill:#cbffc8;fill-opacity:1;stroke:#000000;stroke-width:2.0049119;stroke-miterlimit:4;stroke-dasharray:none;stroke-opacity:1"
       id="path2428"
       sodipodi:cx="221.42857"
       sodipodi:cy="273.79074"
       sodipodi:rx="147.14285"
       sodipodi:ry="95.714287"
       d="M 368.57143,273.79074 A 147.14285,95.714287 0 0 1 359.69763,306.52696 L 221.42857,273.79074 z"
       transform="matrix(0.6082665,0,0,0.405623,65.389574,281.98001)"
       sodipodi:start="0"
       sodipodi:end="0.34906585" />
    <path
       sodipodi:type="arc"
       style="fill:#cbffc8;fill-opacity:1;stroke:#000000;stroke-width:2.005193;stroke-miterlimit:4;stroke-dasharray:none;stroke-opacity:1"
       id="path2430"
       sodipodi:cx="221.42857"
       sodipodi:cy="273.79074"
       sodipodi:rx="147.14285"
       sodipodi:ry="95.714287"
       d="M 368.57143,273.79074 A 147.14285,95.714287 0 0 1 246.97966,368.05091"
       transform="matrix(0.6082665,0,0,0.4056135,65.389564,331.98053)"
       sodipodi:start="0"
       sodipodi:end="1.3962634"
       sodipodi:open="true" />
    <path
       style="fill:none;fill-rule:evenodd;stroke:#000000;stroke-width:0.98615241;stroke-linecap:butt;stroke-linejoin:miter;stroke-miterlimit:4;stroke-dasharray:none;stroke-opacity:1"
       d="M 289.57715,443.04883 L 289.57715,393.50837"
       id="path2432" />
    <path
       style="fill:none;fill-rule:evenodd;stroke:#000000;stroke-width:1.03392887;stroke-linecap:butt;stroke-linejoin:miter;stroke-miterlimit:4;stroke-dasharray:none;stroke-opacity:1"
       d="M 110.57715,443.12521 L 110.57715,393.33857"
       id="path2434" />
    <path
       style="fill:#ffc8c8;fill-opacity:1;stroke:none;stroke-width:1;stroke-miterlimit:4;stroke-opacity:1"
       d="M 116.13735,406.4648 L 184.10715,430.92909 L 183.9849,481.46481 L 115.89286,456.46481 L 116.13735,406.4648 z"
       id="path2436"
       sodipodi:nodetypes="ccccc" />
    <path
       sodipodi:type="arc"
       style="fill:#f3c8ff;fill-opacity:1;stroke:#000000;stroke-width:2.0049119;stroke-miterlimit:4;stroke-dasharray:none;stroke-opacity:1"
       id="path2438"
       sodipodi:cx="221.42857"
       sodipodi:cy="273.79074"
       sodipodi:rx="147.14285"
       sodipodi:ry="95.714287"
       d="M 246.97966,368.05091 A 147.14285,95.714287 0 0 1 83.159521,306.52696 L 221.42857,273.79074 z"
       transform="matrix(0.6082665,0,0,0.405623,65.389574,281.98001)"
       sodipodi:start="1.3962634"
       sodipodi:end="2.7925268" />
    <path
       style="fill:#e4e4e4;fill-opacity:1;stroke:none;stroke-width:1;stroke-miterlimit:4;stroke-opacity:1"
       d="M 184.64286,431.46481 L 214.82143,431.28624 L 215.35715,481.64338 L 184.28571,481.46481 L 184.64286,431.46481 z"
       id="path2440"
       sodipodi:nodetypes="ccccc" />
    <path
       sodipodi:type="arc"
       style="fill:#ffc8c8;fill-opacity:1;stroke:#000000;stroke-width:2.00519299999999978;stroke-miterlimit:4;stroke-dasharray:none;stroke-opacity:1"
       id="path2442"
       sodipodi:cx="221.42857"
       sodipodi:cy="273.79074"
       sodipodi:rx="147.14285"
       sodipodi:ry="95.714287"
       d="M 195.87748,368.05091 A 147.14285,95.714287 0 0 1 83.159521,306.52696"
       transform="matrix(0.6082665,0,0,0.4056135,65.389564,331.98053)"
       sodipodi:start="1.7453293"
       sodipodi:end="2.7925268"
       sodipodi:open="true" />
    <path
       style="fill:none;fill-rule:evenodd;stroke:#000000;stroke-width:1px;stroke-linecap:butt;stroke-linejoin:miter;stroke-opacity:1"
       d="M 215.35714,431.64337 L 215.35714,481.28623"
       id="path2444" />
    <path
       style="fill:#ffc8c8;fill-opacity:1;stroke:none;stroke-width:1;stroke-miterlimit:4;stroke-opacity:1"
       d="M 116.04555,443.93359 L 115.88848,456.01462 L 110.3311,444.51103 L 116.04555,443.93359 z"
       id="path2446"
       sodipodi:nodetypes="cccc" />
    <path
       style="fill:none;fill-rule:evenodd;stroke:#000000;stroke-width:1px;stroke-linecap:butt;stroke-linejoin:miter;stroke-opacity:1"
       d="M 116.07143,406.82195 L 116.07143,456.46481"
       id="path2448" />
    <path
       sodipodi:type="arc"
       style="fill:#ffc8c8;fill-opacity:1;stroke:#000000;stroke-width:2.00519299999999978;stroke-miterlimit:4;stroke-dasharray:none;stroke-opacity:1"
       id="path2450"
       sodipodi:cx="221.42857"
       sodipodi:cy="273.79074"
       sodipodi:rx="147.14285"
       sodipodi:ry="95.714287"
       d="M 83.159521,306.52696 A 147.14285,95.714287 0 0 1 74.285721,273.79074"
       transform="matrix(0.6082665,0,0,0.4056135,65.389564,331.98053)"
       sodipodi:start="2.7925268"
       sodipodi:end="3.1415927"
       sodipodi:open="true" />
    <path
       sodipodi:type="arc"
       style="fill:#cbffc8;fill-opacity:1;stroke:#000000;stroke-width:2.0049119;stroke-miterlimit:4;stroke-dasharray:none;stroke-opacity:1"
       id="path2452"
       sodipodi:cx="221.42857"
       sodipodi:cy="273.79074"
       sodipodi:rx="147.14285"
       sodipodi:ry="95.714287"
       d="M 359.69763,306.52696 A 147.14285,95.714287 0 0 1 334.14654,335.3147 L 221.42857,273.79074 z"
       transform="matrix(0.6082665,0,0,0.405623,65.389574,281.98001)"
       sodipodi:start="0.34906585"
       sodipodi:end="0.6981317" />
    <path
       sodipodi:type="arc"
       style="fill:#cbffc8;fill-opacity:1;stroke:#000000;stroke-width:2.0049119;stroke-miterlimit:4;stroke-dasharray:none;stroke-opacity:1"
       id="path2454"
       sodipodi:cx="221.42857"
       sodipodi:cy="273.79074"
       sodipodi:rx="147.14285"
       sodipodi:ry="95.714287"
       d="M 334.14654,335.3147 A 147.14285,95.714287 0 0 1 294.99999,356.68175 L 221.42857,273.79074 z"
       transform="matrix(0.6082665,0,0,0.405623,65.389574,281.98001)"
       sodipodi:start="0.6981317"
       sodipodi:end="1.0471976" />
    <path
       sodipodi:type="arc"
       style="fill:#cbffc8;fill-opacity:1;stroke:#000000;stroke-width:2.0049119;stroke-miterlimit:4;stroke-dasharray:none;stroke-opacity:1"
       id="path2456"
       sodipodi:cx="221.42857"
       sodipodi:cy="273.79074"
       sodipodi:rx="147.14285"
       sodipodi:ry="95.714287"
       d="M 294.99999,356.68175 A 147.14285,95.714287 0 0 1 246.97966,368.05091 L 221.42857,273.79074 z"
       transform="matrix(0.6082665,0,0,0.405623,65.389574,281.98001)"
       sodipodi:start="1.0471976"
       sodipodi:end="1.3962634" />
    <path
       sodipodi:type="arc"
       style="fill:#e4e4e4;fill-opacity:1;stroke:#000000;stroke-width:2.0049119;stroke-miterlimit:4;stroke-dasharray:none;stroke-opacity:1"
       id="path2458"
       sodipodi:cx="221.42857"
       sodipodi:cy="273.79074"
       sodipodi:rx="147.14285"
       sodipodi:ry="95.714287"
       d="M 246.97966,368.05091 A 147.14285,95.714287 0 0 1 195.87748,368.05091 L 221.42857,273.79074 z"
       transform="matrix(0.6082665,0,0,0.405623,65.389574,281.98001)"
       sodipodi:start="1.3962634"
       sodipodi:end="1.7453293" />
    <path
       sodipodi:type="arc"
       style="fill:#ffc8c8;fill-opacity:1;stroke:#000000;stroke-width:2.0049119;stroke-miterlimit:4;stroke-dasharray:none;stroke-opacity:1"
       id="path2460"
       sodipodi:cx="221.42857"
       sodipodi:cy="273.79074"
       sodipodi:rx="147.14285"
       sodipodi:ry="95.714287"
       d="M 195.87748,368.05091 A 147.14285,95.714287 0 0 1 147.85715,356.68174 L 221.42857,273.79074 z"
       transform="matrix(0.6082665,0,0,0.405623,65.389574,281.98001)"
       sodipodi:start="1.7453293"
       sodipodi:end="2.0943951" />
    <path
       sodipodi:type="arc"
       style="fill:#ffc8c8;fill-opacity:1;stroke:#000000;stroke-width:2.0049119;stroke-miterlimit:4;stroke-dasharray:none;stroke-opacity:1"
       id="path2462"
       sodipodi:cx="221.42857"
       sodipodi:cy="273.79074"
       sodipodi:rx="147.14285"
       sodipodi:ry="95.714287"
       d="M 147.85715,356.68174 A 147.14285,95.714287 0 0 1 108.7106,335.3147 L 221.42857,273.79074 z"
       transform="matrix(0.6082665,0,0,0.405623,65.389574,281.98001)"
       sodipodi:start="2.0943951"
       sodipodi:end="2.443461" />
    <path
       sodipodi:type="arc"
       style="fill:#ffc8c8;fill-opacity:1;stroke:#000000;stroke-width:2.0049119;stroke-miterlimit:4;stroke-dasharray:none;stroke-opacity:1"
       id="path2464"
       sodipodi:cx="221.42857"
       sodipodi:cy="273.79074"
       sodipodi:rx="147.14285"
       sodipodi:ry="95.714287"
       d="M 108.7106,335.3147 A 147.14285,95.714287 0 0 1 83.159521,306.52696 L 221.42857,273.79074 z"
       transform="matrix(0.6082665,0,0,0.405623,65.389574,281.98001)"
       sodipodi:start="2.443461"
       sodipodi:end="2.7925268" />
    <path
       sodipodi:type="arc"
       style="fill:#ffc8c8;fill-opacity:1;stroke:#000000;stroke-width:2.0049119;stroke-miterlimit:4;stroke-dasharray:none;stroke-opacity:1"
       id="path2466"
       sodipodi:cx="221.42857"
       sodipodi:cy="273.79074"
       sodipodi:rx="147.14285"
       sodipodi:ry="95.714287"
       d="M 83.159521,306.52696 A 147.14285,95.714287 0 0 1 74.285721,273.79074 L 221.42857,273.79074 z"
       transform="matrix(0.6082665,0,0,0.405623,65.389574,281.98001)"
       sodipodi:start="2.7925268"
       sodipodi:end="3.1415927" />
    <path
       sodipodi:type="arc"
       style="fill:#cbffc8;fill-opacity:1;stroke:#000000;stroke-width:2.0049119;stroke-miterlimit:4;stroke-dasharray:none;stroke-opacity:1"
       id="path2468"
       sodipodi:cx="221.42857"
       sodipodi:cy="273.79074"
       sodipodi:rx="147.14285"
       sodipodi:ry="95.714287"
       d="M 74.285721,273.79074 A 147.14285,95.714287 0 0 1 83.15952,241.05453 L 221.42857,273.79074 z"
       transform="matrix(0.6082665,0,0,0.405623,65.389574,281.98001)"
       sodipodi:start="3.1415927"
       sodipodi:end="3.4906585" />
    <path
       sodipodi:type="arc"
       style="fill:#e4e4e4;fill-opacity:1;stroke:#000000;stroke-width:2.0049119;stroke-miterlimit:4;stroke-dasharray:none;stroke-opacity:1"
       id="path2470"
       sodipodi:cx="221.42857"
       sodipodi:cy="273.79074"
       sodipodi:rx="147.14285"
       sodipodi:ry="95.714287"
       d="M 83.15952,241.05453 A 147.14285,95.714287 0 0 1 108.71061,212.26678 L 221.42857,273.79074 z"
       transform="matrix(0.6082665,0,0,0.405623,65.389574,281.98001)"
       sodipodi:start="3.4906585"
       sodipodi:end="3.8397244" />
    <path
       sodipodi:type="arc"
       style="fill:#cbffc8;fill-opacity:1;stroke:#000000;stroke-width:2.0049119;stroke-miterlimit:4;stroke-dasharray:none;stroke-opacity:1"
       id="path2472"
       sodipodi:cx="221.42857"
       sodipodi:cy="273.79074"
       sodipodi:rx="147.14285"
       sodipodi:ry="95.714287"
       d="M 108.71061,212.26678 A 147.14285,95.714287 0 0 1 147.85715,190.89974 L 221.42857,273.79074 z"
       transform="matrix(0.6082665,0,0,0.405623,65.389574,281.98001)"
       sodipodi:start="3.8397244"
       sodipodi:end="4.1887902" />
    <path
       sodipodi:type="arc"
       style="fill:#ffc8c8;fill-opacity:1;stroke:#000000;stroke-width:2.0049119;stroke-miterlimit:4;stroke-dasharray:none;stroke-opacity:1"
       id="path2474"
       sodipodi:cx="221.42857"
       sodipodi:cy="273.79074"
       sodipodi:rx="147.14285"
       sodipodi:ry="95.714287"
       d="M 147.85715,190.89974 A 147.14285,95.714287 0 0 1 195.87749,179.53057 L 221.42857,273.79074 z"
       transform="matrix(0.6082665,0,0,0.405623,65.389574,281.98001)"
       sodipodi:start="4.1887902"
       sodipodi:end="4.5378561" />
    <path
       sodipodi:type="arc"
       style="fill:#f3c8ff;fill-opacity:1;stroke:#000000;stroke-width:2.0049119;stroke-miterlimit:4;stroke-dasharray:none;stroke-opacity:1"
       id="path2476"
       sodipodi:cx="221.42857"
       sodipodi:cy="273.79074"
       sodipodi:rx="147.14285"
       sodipodi:ry="95.714287"
       d="M 195.87749,179.53057 A 147.14285,95.714287 0 0 1 246.97966,179.53057 L 221.42857,273.79074 z"
       transform="matrix(0.6082665,0,0,0.405623,65.389574,281.98001)"
       sodipodi:start="4.5378561"
       sodipodi:end="4.8869219" />
    <path
       sodipodi:type="arc"
       style="fill:#f3c8ff;fill-opacity:1;stroke:#000000;stroke-width:2.0049119;stroke-miterlimit:4;stroke-dasharray:none;stroke-opacity:1"
       id="path2478"
       sodipodi:cx="221.42857"
       sodipodi:cy="273.79074"
       sodipodi:rx="147.14285"
       sodipodi:ry="95.714287"
       d="M 246.97966,179.53057 A 147.14285,95.714287 0 0 1 295.00001,190.89974 L 221.42857,273.79074 z"
       transform="matrix(0.6082665,0,0,0.405623,65.389574,281.98001)"
       sodipodi:start="4.8869219"
       sodipodi:end="5.2359878" />
    <path
       sodipodi:type="arc"
       style="fill:#cbffc8;fill-opacity:1;stroke:#000000;stroke-width:2.0049119;stroke-miterlimit:4;stroke-dasharray:none;stroke-opacity:1"
       id="path2480"
       sodipodi:cx="221.42857"
       sodipodi:cy="273.79074"
       sodipodi:rx="147.14285"
       sodipodi:ry="95.714287"
       d="M 295.00001,190.89974 A 147.14285,95.714287 0 0 1 334.14654,212.26678 L 221.42857,273.79074 z"
       transform="matrix(0.6082665,0,0,0.405623,65.389574,281.98001)"
       sodipodi:start="5.2359878"
       sodipodi:end="5.5850536" />
    <path
       sodipodi:type="arc"
       style="fill:#e4e4e4;fill-opacity:1;stroke:#000000;stroke-width:2.0049119;stroke-miterlimit:4;stroke-dasharray:none;stroke-opacity:1"
       id="path2482"
       sodipodi:cx="221.42857"
       sodipodi:cy="273.79074"
       sodipodi:rx="147.14285"
       sodipodi:ry="95.714287"
       d="M 334.14654,212.26678 A 147.14285,95.714287 0 0 1 359.69763,241.05453 L 221.42857,273.79074 z"
       transform="matrix(0.6082665,0,0,0.405623,65.389574,281.98001)"
       sodipodi:start="5.5850536"
       sodipodi:end="5.9341195" />
    <path
       sodipodi:type="arc"
       style="fill:#cbffc8;fill-opacity:1;stroke:#000000;stroke-width:2.0049119;stroke-miterlimit:4;stroke-dasharray:none;stroke-opacity:1"
       id="path2484"
       sodipodi:cx="221.42857"
       sodipodi:cy="273.79074"
       sodipodi:rx="147.14285"
       sodipodi:ry="95.714287"
       d="M 359.69763,241.05453 A 147.14285,95.714287 0 0 1 368.57143,273.79074 L 221.42857,273.79074 z"
       transform="matrix(0.6082665,0,0,0.405623,65.389574,281.98001)"
       sodipodi:start="5.9341195"
       sodipodi:end="6.2831853" />
    <path
       style="fill:none;fill-rule:evenodd;stroke:#000000;stroke-width:1px;stroke-linecap:butt;stroke-linejoin:miter;stroke-opacity:1"
       d="M 244.64286,426.4648 L 244.64286,476.10766"
       id="path2486" />
    <path
       style="fill:none;fill-rule:evenodd;stroke:#000000;stroke-width:1px;stroke-linecap:butt;stroke-linejoin:miter;stroke-opacity:1"
       d="M 268.21429,418.25052 L 268.21429,467.89338"
       id="path2488" />
    <path
       style="fill:none;fill-rule:evenodd;stroke:#000000;stroke-width:1px;stroke-linecap:butt;stroke-linejoin:miter;stroke-opacity:1"
       d="M 283.92857,406.82194 L 283.92857,456.4648"
       id="path2490" />
    <path
       style="fill:none;fill-rule:evenodd;stroke:#000000;stroke-width:1px;stroke-linecap:butt;stroke-linejoin:miter;stroke-opacity:1"
       d="M 184.42857,431.41123 L 184.42857,481.05409"
       id="path2492" />
    <path
       style="fill:none;fill-rule:evenodd;stroke:#000000;stroke-width:1px;stroke-linecap:butt;stroke-linejoin:miter;stroke-opacity:1"
       d="M 155.35715,427.00051 L 155.35715,476.64337"
       id="path2494" />
    <path
       style="fill:none;fill-rule:evenodd;stroke:#000000;stroke-width:1px;stroke-linecap:butt;stroke-linejoin:miter;stroke-opacity:1"
       d="M 131.60714,418.25051 L 131.60714,467.89337"
       id="path2496" />
    <path
       sodipodi:type="arc"
       style="fill:#e4e4e4;fill-opacity:1;stroke:#000000;stroke-width:2.005193;stroke-miterlimit:4;stroke-dasharray:none;stroke-opacity:1"
       id="path2498"
       sodipodi:cx="221.42857"
       sodipodi:cy="273.79074"
       sodipodi:rx="147.14285"
       sodipodi:ry="95.714287"
       d="M 246.97966,368.05091 A 147.14285,95.714287 0 0 1 195.87748,368.05091"
       transform="matrix(0.6082665,0,0,0.4056135,65.389564,331.98053)"
       sodipodi:start="1.3962634"
       sodipodi:end="1.7453293"
       sodipodi:open="true" />
    <rect
       style="fill:#ffc8c8;fill-opacity:1;stroke:#000000;stroke-width:1;stroke-miterlimit:4;stroke-dasharray:none;stroke-opacity:1"
       id="rect2728"
       width="140"
       height="28.139008"
       x="330.95618"
       y="385.20416" />
    <rect
       style="fill:#cbffc8;fill-opacity:1;stroke:#000000;stroke-width:1;stroke-miterlimit:4;stroke-dasharray:none;stroke-opacity:1"
       id="rect2730"
       width="160"
       height="28.139008"
       x="330.95618"
       y="349.28818" />
  </g>
</svg>
